<?xml version="1.0" encoding="UTF-8"?>
<!-- width="1280" height="1280" -->
<svg version="1.1" xmlns="http://www.w3.org/2000/svg" >
<path d="M0 0 C0.62777344 0.33902344 1.25554688 0.67804687 1.90234375 1.02734375 C10.03065625 6.02527769 14.81534568 14.9420871 17 24 C19.97906449 36.79738972 17.95908909 50.80494364 11 62 C6.07020834 69.24969362 -1.55065863 73.79406417 -10 76 C-19.85197895 77.02847176 -30.31875264 77.24492028 -39 72 C-39.70125 71.59910156 -40.4025 71.19820312 -41.125 70.78515625 C-49.31126366 65.43617715 -54.39988642 56.48822606 -56.56640625 47.08203125 C-58.60581275 32.58570939 -56.97296453 18.95035731 -48 7 C-36.74972368 -5.87860579 -14.70363994 -8.71859668 0 0 Z M-38.6796875 15.90234375 C-44.38245822 24.96266291 -45.05201982 34.27772688 -43.6328125 44.6953125 C-41.97100814 51.95716989 -37.55120786 57.17478743 -32 62 C-25.76896458 65.78402961 -20.10932054 65.76575301 -13 65 C-6.78518194 63.3077967 -2.39283861 59.39039743 1 54 C5.90469666 44.48001426 6.69987014 34.39829485 3.4375 24.1875 C0.42310163 16.93179023 -4.36406923 10.81543397 -11.69921875 7.625 C-22.27176007 4.75300236 -31.93648196 7.22461203 -38.6796875 15.90234375 Z " fill="#FFFFFF" transform="translate(592,603)"/>
<path d="M0 0 C1.46331521 -0.01143089 2.92659172 -0.03173902 4.38964844 -0.06152344 C15.73855008 -0.29244914 26.37687607 0.29976842 35.15649414 8.42016602 C43.35158248 16.34208475 46.93218469 26.4594275 47.16186523 37.73901367 C47.13288755 49.84378396 45.6649774 61.28801478 36.78149414 70.29516602 C26.63887772 79.85820436 14.99742272 80.88735827 1.71899414 80.60766602 C0.29257494 80.59614562 -1.13385945 80.58636911 -2.56030273 80.57836914 C-12.85554827 80.47664481 -12.85554827 80.47664481 -15.21850586 79.29516602 C-15.21850586 53.55516602 -15.21850586 27.81516602 -15.21850586 1.29516602 C-10.81465291 -0.90676046 -4.89277266 0.02654699 0 0 Z M-2.21850586 11.29516602 C-2.21850586 30.43516602 -2.21850586 49.57516602 -2.21850586 69.29516602 C14.08028783 69.93437289 14.08028783 69.93437289 26.60961914 62.72094727 C33.30185415 55.75257635 34.2650989 47.58437692 34.20556641 38.25292969 C33.90216519 29.58709626 31.18712631 22.28303956 24.78149414 16.29516602 C16.07883801 9.70701067 9.3916319 11.29516602 -2.21850586 11.29516602 Z " fill="#FFFFFF" transform="translate(684.218505859375,598.704833984375)"/>
<path d="M0 0 C1.66577148 1.62304688 1.66577148 1.62304688 3.12109375 3.71875 C3.66443359 4.48703125 4.20777344 5.2553125 4.76757812 6.046875 C5.59418945 7.26117187 5.59418945 7.26117187 6.4375 8.5 C7.25831055 9.66789063 7.25831055 9.66789063 8.09570312 10.859375 C11.81779468 16.18042423 15.41661763 21.58489542 19 27 C22.83480678 23.36989821 25.88044959 19.58836527 28.875 15.25 C32.76348235 9.70566373 36.77164412 4.29244544 41 -1 C45.48071284 -0.15256083 47.63834347 2.02034989 51 5 C50.4276085 9.13503513 48.18180219 11.60641523 45.625 14.8125 C44.72233903 15.95705812 43.82136648 17.10294935 42.921875 18.25 C42.2112793 19.15492188 42.2112793 19.15492188 41.48632812 20.078125 C38.8847705 23.44203131 36.38099087 26.87713231 33.875 30.3125 C33.3898291 30.97677002 32.9046582 31.64104004 32.40478516 32.32543945 C31.26855182 33.88267498 30.13407212 35.44118984 29 37 C30.54925331 40.40835729 32.54949444 43.21074501 34.8125 46.1875 C35.60140625 47.23292969 36.3903125 48.27835938 37.203125 49.35546875 C39.27102099 52.0663559 41.37303764 54.7486193 43.484375 57.42578125 C44.07629639 58.18286377 44.66821777 58.93994629 45.27807617 59.7199707 C46.45491922 61.22366987 47.63983448 62.72109101 48.83325195 64.21166992 C49.37425537 64.90494385 49.91525879 65.59821777 50.47265625 66.3125 C50.96000244 66.92738281 51.44734863 67.54226563 51.94946289 68.17578125 C53 70 53 70 53 74 C51.64453125 75.51953125 51.64453125 75.51953125 49.8125 76.8125 C49.22082031 77.25207031 48.62914062 77.69164062 48.01953125 78.14453125 C45.26814035 79.31001405 43.8326654 78.86322943 41 78 C39.3659668 76.40869141 39.3659668 76.40869141 37.94921875 74.3515625 C37.41901123 73.59794434 36.88880371 72.84432617 36.3425293 72.06787109 C35.79636963 71.26172363 35.25020996 70.45557617 34.6875 69.625 C33.54179684 67.9842841 32.39596364 66.34365899 31.25 64.703125 C30.69699219 63.90068359 30.14398438 63.09824219 29.57421875 62.27148438 C27.49346784 59.26911055 25.34701184 56.32119115 23.1875 53.375 C22.56230469 52.51648438 21.93710937 51.65796875 21.29296875 50.7734375 C20.65294922 49.89558594 20.65294922 49.89558594 20 49 C16.04243425 52.59864571 13.20375891 56.81107008 10.1875 61.1875 C5.95546811 67.26215909 1.65918998 73.24163492 -3 79 C-6.98467756 78.17707746 -9.67947232 76.33946269 -13 74 C-12.57685958 68.75104384 -9.75179332 65.56247213 -6.625 61.5625 C-6.09422852 60.86962891 -5.56345703 60.17675781 -5.01660156 59.46289062 C-3.3548089 57.30029721 -1.67950919 55.14885549 0 53 C0.54237305 52.30374512 1.08474609 51.60749023 1.64355469 50.89013672 C4.74479715 46.91270328 7.86438408 42.95038226 11 39 C6.89738137 32.64618635 2.4974019 26.62237572 -2.1875 20.6875 C-3.41040259 19.12909953 -4.63306731 17.57051235 -5.85546875 16.01171875 C-6.38809326 15.33584717 -6.92071777 14.65997559 -7.46948242 13.96362305 C-8.22708862 12.99162964 -8.22708862 12.99162964 -9 12 C-9.55985596 11.3397583 -10.11971191 10.6795166 -10.6965332 9.99926758 C-12 8 -12 8 -12 4 C-10.64453125 2.48046875 -10.64453125 2.48046875 -8.8125 1.1875 C-8.22082031 0.74792969 -7.62914062 0.30835938 -7.01953125 -0.14453125 C-4.26560515 -1.31108796 -2.83508995 -0.86734029 0 0 Z " fill="#FFFFFF" transform="translate(434,600)"/>
<path d="M0 0 C3.96 0 7.92 0 12 0 C12.01458252 1.49781006 12.02916504 2.99562012 12.04418945 4.53881836 C12.1023976 10.12450386 12.17962931 15.70979573 12.26245117 21.29516602 C12.29559475 23.70721014 12.32365918 26.11932985 12.34643555 28.53149414 C12.38017572 32.00960335 12.43250262 35.48702644 12.48828125 38.96484375 C12.49467117 40.03395493 12.5010611 41.1030661 12.50764465 42.20457458 C12.67298181 50.72761893 13.72487271 58.72487271 20 65 C24.68804829 67.89045243 29.6653505 67.63397284 35 67 C40.19071836 64.40464082 43.07289245 61.54018863 45.05224609 56.11694336 C46.50946503 50.81576399 46.3567813 45.40267164 46.4140625 39.94140625 C46.43342865 38.79711655 46.4527948 37.65282684 46.4727478 36.47386169 C46.5322908 32.83681578 46.57882812 29.19973779 46.625 25.5625 C46.663203 23.08917928 46.70225608 20.61587154 46.7421875 18.14257812 C46.83797172 12.09515807 46.92209623 6.04767576 47 0 C50.96 0 54.92 0 59 0 C59.09936531 7.7738071 59.17170448 15.54723906 59.21972656 23.3215332 C59.23975996 25.96254929 59.26699451 28.60352149 59.30175781 31.24438477 C59.350639 35.05496091 59.37305267 38.86494721 59.390625 42.67578125 C59.41127014 43.84393875 59.43191528 45.01209625 59.45318604 46.21565247 C59.4555286 54.90231082 58.10771033 63.25962879 52.75 70.375 C44.00435401 78.72311662 36.05297893 79.46282113 24.4453125 79.28125 C17.69326695 78.99932743 13.29723977 76.93989136 8.1875 72.625 C0.31206095 63.17447314 -0.29700327 55.77439646 -0.1953125 43.84765625 C-0.1924826 42.59238632 -0.18965271 41.33711639 -0.18673706 40.04380798 C-0.17747127 36.72785653 -0.15954299 33.41218699 -0.1373291 30.09631348 C-0.11676595 26.70420755 -0.10771309 23.31207234 -0.09765625 19.91992188 C-0.07565121 13.2798608 -0.04114964 6.63996891 0 0 Z " fill="#FFFFFF" transform="translate(790,600)"/>
<path d="M0 0 C16.17 0 32.34 0 49 0 C49 3.3 49 6.6 49 10 C48 11 48 11 44.67358398 11.11352539 C43.19774444 11.11336629 41.72189931 11.10767314 40.24609375 11.09765625 C39.47064713 11.0962413 38.6952005 11.09482635 37.89625549 11.09336853 C35.40996506 11.08775345 32.9237634 11.07519846 30.4375 11.0625 C28.75586067 11.05748694 27.07421994 11.0529237 25.39257812 11.04882812 C21.26165671 11.03862832 17.13092818 11.01905605 13 11 C13 17.93 13 24.86 13 32 C23.23 32 33.46 32 44 32 C44 35.3 44 38.6 44 42 C33.77 42 23.54 42 13 42 C13 50.25 13 58.5 13 67 C15.51496094 66.98839844 18.02992188 66.97679687 20.62109375 66.96484375 C23.0469551 66.95705327 25.47281507 66.95097646 27.89868164 66.94506836 C29.58944316 66.9400281 31.28020029 66.93319595 32.97094727 66.92456055 C35.39600707 66.91248143 37.82100944 66.90676877 40.24609375 66.90234375 C41.38672523 66.89460182 41.38672523 66.89460182 42.55039978 66.88670349 C44.3673257 66.88650762 46.18413127 66.93802723 48 67 C50.60341656 69.60341656 49 74.31821299 49 78 C32.83 78 16.66 78 0 78 C0 52.26 0 26.52 0 0 Z " fill="#FFFFFF" transform="translate(321,600)"/>
<path d="M0 0 C1.31641479 0.00132935 1.31641479 0.00132935 2.65942383 0.00268555 C9.57368921 0.12802927 16.2000118 0.83992462 22.3125 4.375 C23.52636936 8.01660808 22.9799695 8.70665469 21.375 12.0625 C20.99472656 12.87074219 20.61445312 13.67898438 20.22265625 14.51171875 C19.92230469 15.12660156 19.62195313 15.74148438 19.3125 16.375 C18.70921875 16.17003906 18.1059375 15.96507812 17.484375 15.75390625 C16.68515625 15.48449219 15.8859375 15.21507812 15.0625 14.9375 C14.27359375 14.67066406 13.4846875 14.40382813 12.671875 14.12890625 C5.59260272 11.8668209 -2.68498949 10.83101527 -9.90234375 13.05859375 C-12.68066313 14.69569637 -13.67179937 16.33400391 -14.8125 19.3125 C-14.64175379 23.49578206 -13.71034285 24.44429024 -10.6875 27.375 C-6.10670265 29.74136308 -1.26392031 31.50662903 3.54101562 33.36132812 C10.98069504 36.38657187 18.36974259 40.27449697 22.52514648 47.47680664 C25.22542569 53.98678208 24.58109714 60.8932939 22.3125 67.375 C19.04984564 73.53779158 14.68776115 77.16834414 8.1875 79.4921875 C3.59018548 80.53955956 -0.67520235 80.75848823 -5.375 80.75 C-6.25478516 80.74911377 -7.13457031 80.74822754 -8.04101562 80.74731445 C-16.83860761 80.58813686 -24.71396699 79.00871069 -31.6875 73.375 C-31.15634894 68.86021602 -29.32129708 66.02833143 -26.6875 62.375 C-23.73389243 63.00933183 -21.29724276 63.97451825 -18.625 65.375 C-12.02277289 68.82184409 -6.05854462 68.87365616 1.3125 68.375 C5.16947399 67.11150852 6.67706367 66.133424 9.25 63.0625 C10.62481798 59.58501922 10.49354274 57.91812823 9.3125 54.375 C4.3275431 47.92450856 -3.45100937 45.74447344 -10.78515625 42.74414062 C-17.63241576 39.78833606 -22.5540756 36.70939318 -26.6875 30.375 C-28.60673356 24.61729932 -28.86977905 17.62626739 -26.78125 11.8828125 C-23.23596935 5.86038062 -18.48232955 2.63034204 -11.73925781 0.78955078 C-7.84749791 0.00323375 -3.95870193 -0.00715179 0 0 Z " fill="#FFFFFF" transform="translate(937.6875,598.625)"/>
</svg>
